<?xml version="1.0" standalone="no"?>
<!DOCTYPE svg PUBLIC "-//W3C//DTD SVG 20010904//EN"
 "http://www.w3.org/TR/2001/REC-SVG-20010904/DTD/svg10.dtd">
<svg version="1.0" xmlns="http://www.w3.org/2000/svg"
 width="310.000000pt" height="310.000000pt" viewBox="0 0 310.000000 310.000000"
 preserveAspectRatio="xMidYMid meet">
<metadata>
Created by potrace 1.15, written by Peter Selinger 2001-2017
</metadata>
<g transform="translate(0.000000,310.000000) scale(0.100000,-0.100000)"
fill="#000000" stroke="none">
<path d="M1377 2805 c-9 -6 -17 -16 -17 -21 -1 -25 -18 -36 -39 -24 -28 15
-61 4 -61 -21 0 -18 83 -89 105 -88 18 0 77 108 70 129 -9 29 -37 41 -58 25z"/>
<path d="M2072 2620 c-28 -21 -53 -44 -57 -50 -4 -6 -35 -8 -88 -4 -119 9
-224 -20 -324 -90 -39 -27 -45 -28 -85 -18 -88 23 -108 24 -132 8 -31 -20 -36
-62 -20 -150 8 -39 14 -75 13 -81 0 -5 -16 -23 -34 -38 -34 -28 -35 -28 -78
-13 -48 16 -178 41 -268 51 l-55 6 -49 75 c-59 89 -110 134 -130 113 -31 -32
-58 -143 -62 -259 -3 -65 -10 -128 -18 -145 -16 -36 -21 -93 -10 -118 4 -9 5
-28 3 -42 -3 -14 1 -30 8 -36 8 -6 14 -29 14 -50 0 -22 4 -39 9 -39 5 0 14
-14 22 -31 17 -44 1 -101 -61 -213 -28 -49 -50 -93 -50 -98 0 -4 -5 -8 -11 -8
-7 0 -9 8 -4 23 12 40 18 300 7 340 -11 39 -11 40 33 73 17 13 15 13 -12 -1
l-33 -15 -27 38 c-47 66 -95 94 -172 100 -58 4 -74 1 -116 -21 -60 -30 -98
-69 -119 -119 -23 -53 -20 -91 7 -116 45 -43 97 -22 139 56 24 44 62 61 96 41
43 -23 62 -73 62 -159 0 -67 -7 -120 -41 -335 -27 -173 -38 -324 -41 -565 -2
-254 -1 -267 20 -321 49 -124 125 -197 246 -239 76 -26 299 -29 391 -5 88 23
155 65 190 118 16 25 34 46 38 46 5 1 27 -14 49 -33 54 -46 166 -100 258 -122
65 -17 116 -19 385 -19 270 0 319 2 380 19 213 56 347 183 390 371 9 37 28
102 43 144 22 63 26 94 26 181 1 133 -22 196 -97 273 -43 43 -61 74 -105 177
-55 132 -74 196 -118 405 -19 94 -27 157 -26 228 2 168 -52 314 -156 425 -31
33 -41 52 -46 93 -10 71 -43 156 -69 174 -34 24 -62 18 -115 -25z m97 -14 c13
-16 37 -94 45 -152 6 -40 4 -43 -43 -85 -54 -48 -66 -58 -99 -76 -31 -18 -40
-16 -47 10 -12 36 -115 186 -137 198 -36 20 -5 29 61 18 l63 -10 59 56 c63 57
79 64 98 41z m-433 -156 c71 -65 162 -208 149 -231 -7 -11 -128 -28 -232 -32
l-92 -3 -3 60 c-3 57 -5 61 -28 64 -14 1 -43 -6 -65 -18 -21 -11 -43 -16 -47
-12 -5 5 -12 41 -15 80 l-6 72 28 0 c16 0 55 -7 86 -16 l58 -16 38 29 c44 34
74 52 88 53 6 0 24 -13 41 -30z m592 -175 l33 -49 -28 -23 c-38 -31 -121 -86
-163 -108 -65 -33 -72 -36 -75 -33 -2 2 -6 26 -10 53 l-6 50 58 34 c70 42 133
98 133 118 0 26 24 8 58 -42z m76 -177 c13 -49 7 -108 -11 -115 -10 -4 -43
-23 -73 -44 -51 -34 -174 -89 -199 -89 -6 0 -11 19 -11 44 l0 45 73 35 c79 38
197 119 197 136 0 19 18 10 24 -12z m-482 -10 c3 -7 4 -28 4 -47 -1 -32 -4
-34 -51 -47 -50 -13 -177 -25 -283 -28 -31 -1 -63 -5 -69 -9 -18 -11 -16 9 5
66 l18 47 140 4 c76 3 153 9 169 14 42 14 62 14 67 0z m-1467 -187 c51 -23
101 -79 114 -128 17 -59 14 -70 -20 -82 -37 -13 -49 -7 -49 20 0 29 -26 74
-56 98 -58 46 -146 13 -179 -65 -18 -44 -41 -53 -67 -26 -18 18 -19 24 -9 53
19 54 61 100 115 125 61 28 97 30 151 5z m1493 -48 c6 -55 -8 -58 -250 -60
-120 -1 -218 1 -218 5 0 4 3 16 6 27 5 18 14 20 112 21 97 2 309 28 321 40 12
11 26 -5 29 -33z m425 -25 c-6 -30 -5 -31 24 -25 l30 6 12 -69 c13 -84 14 -93
1 -85 -5 3 -26 -3 -47 -13 -30 -16 -217 -82 -229 -82 -6 0 -35 61 -50 102
l-14 39 38 15 c87 35 181 87 207 114 16 17 30 30 32 30 1 0 0 -14 -4 -32z
m-907 -103 c8 -8 45 -24 82 -37 56 -18 93 -22 231 -24 l165 -3 18 -62 c11 -33
17 -63 15 -65 -2 -2 -46 -5 -98 -5 -95 -2 -292 32 -394 67 -25 8 -51 14 -56
12 -16 -5 49 -85 101 -123 105 -77 290 -138 459 -151 85 -6 90 -8 100 -33 36
-97 49 -141 43 -145 -5 -3 -48 -10 -98 -17 -109 -14 -267 -7 -433 22 -68 11
-126 17 -129 14 -11 -12 74 -80 145 -118 135 -70 258 -97 458 -100 l110 -2 8
-78 c5 -43 6 -85 3 -92 -2 -7 -26 -17 -53 -21 -57 -8 -283 11 -368 31 -33 8
-63 15 -67 15 -15 0 -8 -21 15 -44 12 -13 40 -43 62 -67 88 -94 232 -164 324
-156 l53 4 -46 -44 c-25 -25 -46 -51 -46 -58 0 -7 -7 -26 -15 -41 -24 -47 -14
-106 21 -127 8 -4 14 -16 14 -27 0 -29 29 -32 139 -16 153 23 279 80 380 172
60 53 50 25 -15 -46 -41 -43 -77 -70 -128 -95 -135 -64 -168 -69 -496 -69
-307 -1 -339 2 -465 46 -70 25 -148 73 -187 114 l-26 29 8 140 c5 77 9 222 10
322 0 117 4 191 12 208 19 41 0 50 -65 29 -74 -23 -126 -8 -220 63 -39 29 -76
53 -83 53 -7 0 -29 -9 -48 -21 -39 -23 -85 -20 -107 7 -14 17 -4 30 26 36 11
2 21 12 23 22 4 17 -1 18 -43 13 -41 -6 -46 -5 -43 11 2 11 15 19 37 22 40 6
53 29 22 37 -33 8 -25 20 26 37 46 16 92 22 81 10 -4 -3 0 -17 7 -30 8 -15 11
-42 8 -65 -3 -21 -3 -39 0 -39 3 0 18 15 32 34 29 38 37 78 24 114 -7 19 -5
24 18 33 45 17 51 8 48 -83 -1 -46 -5 -95 -10 -110 -17 -64 72 -4 111 74 21
42 25 62 22 104 -5 54 1 64 38 64 20 0 12 -151 -10 -204 -25 -55 -10 -58 36
-6 56 64 105 186 95 238 -4 19 2 28 30 44 24 15 33 27 31 42 -2 13 -10 20 -21
20 -9 -1 -17 4 -17 11 0 12 70 124 78 125 2 0 10 -7 18 -15z m-476 -59 c129
-21 254 -69 267 -102 12 -31 -54 -61 -186 -84 -36 -6 -100 -25 -144 -40 -51
-19 -106 -31 -156 -34 -42 -3 -84 -8 -94 -12 -26 -9 -21 5 28 92 25 43 53 102
62 131 14 46 20 52 47 56 63 8 93 7 176 -7z m1519 -223 l22 -72 -33 -31 c-43
-40 -176 -130 -192 -130 -9 0 -72 162 -63 165 1 0 29 13 62 29 86 40 165 95
165 114 0 29 16 -1 39 -75z m39 -458 c46 -15 104 -39 130 -56 26 -16 55 -32
65 -35 30 -11 19 -130 -23 -238 l-11 -30 -30 36 c-56 69 -238 188 -286 188 -9
0 -12 7 -9 18 3 9 10 37 16 60 18 68 31 93 49 88 9 -3 53 -17 99 -31z m-88
-405 c30 -31 69 -73 87 -94 l32 -38 -24 -22 c-13 -12 -47 -35 -75 -50 l-51
-28 -20 26 c-27 34 -166 126 -191 126 -17 0 -14 8 24 53 24 28 53 68 64 87 10
19 23 38 27 41 10 7 53 -27 127 -101z"/>
<path d="M1192 2617 c-15 -16 -22 -36 -22 -65 l0 -41 -35 6 c-29 5 -41 1 -60
-17 -29 -27 -31 -49 -10 -90 21 -41 57 -56 145 -63 41 -3 83 -7 94 -9 15 -3
19 4 20 42 2 25 6 80 11 122 l8 77 -31 30 c-39 39 -88 42 -120 8z"/>
</g>
</svg>
